<svg width="35" height="35" viewBox="0 0 35 35" fill="none" xmlns="http://www.w3.org/2000/svg">
<g filter="url(#filter0_d_2226_2297)">
<path d="M13.3333 26H21.6667H13.3333ZM13.3333 26V19.0556V26ZM13.3333 26H5.83333C5.3731 26 5 25.6269 5 25.1667V19.8889C5 19.4286 5.3731 19.0556 5.83333 19.0556H13.3333M21.6667 26V9.33333V26ZM21.6667 26H29.1667C29.6269 26 30 25.6269 30 25.1667V1.83333C30 1.3731 29.6269 1 29.1667 1H22.5C22.0397 1 21.6667 1.3731 21.6667 1.83333V9.33333M21.6667 9.33333H14.1667C13.7064 9.33333 13.3333 9.70643 13.3333 10.1667V19.0556" fill="white"/>
<path d="M13.3333 26H21.6667M13.3333 26V19.0556M13.3333 26H5.83333C5.3731 26 5 25.6269 5 25.1667V19.8889C5 19.4286 5.3731 19.0556 5.83333 19.0556H13.3333M21.6667 26V9.33333M21.6667 26H29.1667C29.6269 26 30 25.6269 30 25.1667V1.83333C30 1.3731 29.6269 1 29.1667 1H22.5C22.0397 1 21.6667 1.3731 21.6667 1.83333V9.33333M13.3333 19.0556V10.1667C13.3333 9.70643 13.7064 9.33333 14.1667 9.33333H21.6667" stroke="#204E78" stroke-width="2"/>
</g>
<defs>
<filter id="filter0_d_2226_2297" x="0" y="0" width="35" height="35" filterUnits="userSpaceOnUse" color-interpolation-filters="sRGB">
<feFlood flood-opacity="0" result="BackgroundImageFix"/>
<feColorMatrix in="SourceAlpha" type="matrix" values="0 0 0 0 0 0 0 0 0 0 0 0 0 0 0 0 0 0 127 0" result="hardAlpha"/>
<feOffset dy="4"/>
<feGaussianBlur stdDeviation="2"/>
<feComposite in2="hardAlpha" operator="out"/>
<feColorMatrix type="matrix" values="0 0 0 0 0 0 0 0 0 0 0 0 0 0 0 0 0 0 0.25 0"/>
<feBlend mode="normal" in2="BackgroundImageFix" result="effect1_dropShadow_2226_2297"/>
<feBlend mode="normal" in="SourceGraphic" in2="effect1_dropShadow_2226_2297" result="shape"/>
</filter>
</defs>
</svg>
