<svg width="33" height="34" viewBox="0 0 33 34" fill="none" xmlns="http://www.w3.org/2000/svg">
<g filter="url(#filter0_d_2223_1670)">
<path d="M11.5 2.6H7.75C7.41848 2.6 7.10054 2.73696 6.86612 2.98076C6.6317 3.22456 6.5 3.55522 6.5 3.9V6.5C6.5 6.84478 6.6317 7.17544 6.86612 7.41924C7.10054 7.66304 7.41848 7.8 7.75 7.8H10.25C10.5815 7.8 10.8995 7.66304 11.1339 7.41924C11.3683 7.17544 11.5 6.84478 11.5 6.5V2.6ZM7.7625 10.4V23.3545H10.25V16.9C10.25 16.2104 10.5134 15.5491 10.9822 15.0615C11.4511 14.5739 12.087 14.3 12.75 14.3H15.25C15.913 14.3 16.5489 14.5739 17.0178 15.0615C17.4866 15.5491 17.75 16.2104 17.75 16.9V23.3545H25.2663V10.4H22.75C21.79 10.4 20.9125 10.0243 20.25 9.4068C19.5632 10.0475 18.6727 10.4013 17.75 10.4H15.25C14.29 10.4 13.4125 10.0243 12.75 9.4068C12.0632 10.0475 11.1727 10.4013 10.25 10.4H7.7625ZM5.2625 9.4198C4.86497 9.05409 4.5468 8.60461 4.32913 8.1012C4.11145 7.59779 3.99926 7.05197 4 6.5V3.9C4 2.86566 4.39509 1.87368 5.09835 1.14228C5.80161 0.410892 6.75544 0 7.75 0L25.25 0C26.2446 0 27.1984 0.410892 27.9017 1.14228C28.6049 1.87368 29 2.86566 29 3.9V6.5C29 7.6466 28.525 8.6788 27.7663 9.3925V23.3545C27.7663 24.0441 27.5029 24.7054 27.034 25.193C26.5652 25.6806 25.9293 25.9545 25.2663 25.9545H15.7163C15.5625 25.9847 15.4064 26 15.25 26H12.75C12.5936 26 12.4375 25.9847 12.2838 25.9545H7.76375C7.10071 25.9545 6.46483 25.6806 5.99599 25.193C5.52715 24.7054 5.26375 24.0441 5.26375 23.3545V9.4185L5.2625 9.4198ZM15.25 23.3558V16.9H12.75V23.3545H15.25V23.3558ZM19 2.6H14V6.5C14 6.84478 14.1317 7.17544 14.3661 7.41924C14.6005 7.66304 14.9185 7.8 15.25 7.8H17.75C18.0815 7.8 18.3995 7.66304 18.6339 7.41924C18.8683 7.17544 19 6.84478 19 6.5V2.6ZM21.5 2.6V6.5C21.5 6.84478 21.6317 7.17544 21.8661 7.41924C22.1005 7.66304 22.4185 7.8 22.75 7.8H25.25C25.5815 7.8 25.8995 7.66304 26.1339 7.41924C26.3683 7.17544 26.5 6.84478 26.5 6.5V3.9C26.5 3.55522 26.3683 3.22456 26.1339 2.98076C25.8995 2.73696 25.5815 2.6 25.25 2.6H21.5ZM21.5 14.3H22.75C23.0815 14.3 23.3995 14.437 23.6339 14.6808C23.8683 14.9246 24 15.2552 24 15.6V19.5C24 19.8448 23.8683 20.1754 23.6339 20.4192C23.3995 20.663 23.0815 20.8 22.75 20.8H21.5C21.1685 20.8 20.8505 20.663 20.6161 20.4192C20.3817 20.1754 20.25 19.8448 20.25 19.5V15.6C20.25 15.2552 20.3817 14.9246 20.6161 14.6808C20.8505 14.437 21.1685 14.3 21.5 14.3Z" fill="#204E78"/>
<path d="M11.5 2.6H7.75C7.41848 2.6 7.10054 2.73696 6.86612 2.98076C6.6317 3.22456 6.5 3.55522 6.5 3.9V6.5C6.5 6.84478 6.6317 7.17544 6.86612 7.41924C7.10054 7.66304 7.41848 7.8 7.75 7.8H10.25C10.5815 7.8 10.8995 7.66304 11.1339 7.41924C11.3683 7.17544 11.5 6.84478 11.5 6.5V2.6ZM7.7625 10.4V23.3545H10.25V16.9C10.25 16.2104 10.5134 15.5491 10.9822 15.0615C11.4511 14.5739 12.087 14.3 12.75 14.3H15.25C15.913 14.3 16.5489 14.5739 17.0178 15.0615C17.4866 15.5491 17.75 16.2104 17.75 16.9V23.3545H25.2663V10.4H22.75C21.79 10.4 20.9125 10.0243 20.25 9.4068C19.5632 10.0475 18.6727 10.4013 17.75 10.4H15.25C14.29 10.4 13.4125 10.0243 12.75 9.4068C12.0632 10.0475 11.1727 10.4013 10.25 10.4H7.7625ZM5.2625 9.4198C4.86497 9.05409 4.5468 8.60461 4.32913 8.1012C4.11145 7.59779 3.99926 7.05197 4 6.5V3.9C4 2.86566 4.39509 1.87368 5.09835 1.14228C5.80161 0.410892 6.75544 0 7.75 0L25.25 0C26.2446 0 27.1984 0.410892 27.9017 1.14228C28.6049 1.87368 29 2.86566 29 3.9V6.5C29 7.6466 28.525 8.6788 27.7663 9.3925V23.3545C27.7663 24.0441 27.5029 24.7054 27.034 25.193C26.5652 25.6806 25.9293 25.9545 25.2663 25.9545H15.7163C15.5625 25.9847 15.4064 26 15.25 26H12.75C12.5936 26 12.4375 25.9847 12.2838 25.9545H7.76375C7.10071 25.9545 6.46483 25.6806 5.99599 25.193C5.52715 24.7054 5.26375 24.0441 5.26375 23.3545V9.4185L5.2625 9.4198ZM15.25 23.3558V16.9H12.75V23.3545H15.25V23.3558ZM19 2.6H14V6.5C14 6.84478 14.1317 7.17544 14.3661 7.41924C14.6005 7.66304 14.9185 7.8 15.25 7.8H17.75C18.0815 7.8 18.3995 7.66304 18.6339 7.41924C18.8683 7.17544 19 6.84478 19 6.5V2.6ZM21.5 2.6V6.5C21.5 6.84478 21.6317 7.17544 21.8661 7.41924C22.1005 7.66304 22.4185 7.8 22.75 7.8H25.25C25.5815 7.8 25.8995 7.66304 26.1339 7.41924C26.3683 7.17544 26.5 6.84478 26.5 6.5V3.9C26.5 3.55522 26.3683 3.22456 26.1339 2.98076C25.8995 2.73696 25.5815 2.6 25.25 2.6H21.5ZM21.5 14.3H22.75C23.0815 14.3 23.3995 14.437 23.6339 14.6808C23.8683 14.9246 24 15.2552 24 15.6V19.5C24 19.8448 23.8683 20.1754 23.6339 20.4192C23.3995 20.663 23.0815 20.8 22.75 20.8H21.5C21.1685 20.8 20.8505 20.663 20.6161 20.4192C20.3817 20.1754 20.25 19.8448 20.25 19.5V15.6C20.25 15.2552 20.3817 14.9246 20.6161 14.6808C20.8505 14.437 21.1685 14.3 21.5 14.3Z" fill="black" fill-opacity="0.2"/>
<path d="M7.75 0.0498047H25.25C26.1692 0.0498047 27.0536 0.405846 27.7324 1.04492L27.8652 1.17676C28.5593 1.89864 28.9502 2.87869 28.9502 3.90039V6.5C28.9502 7.63259 28.4812 8.65206 27.7324 9.35645L27.7158 9.37109V23.3545C27.7158 24.0314 27.4577 24.6801 26.998 25.1582C26.5385 25.6361 25.9156 25.9042 25.2666 25.9043H15.7158V25.9033L15.707 25.9053C15.5565 25.9349 15.4032 25.9502 15.25 25.9502H12.75L12.5205 25.9385C12.4444 25.931 12.3682 25.9201 12.293 25.9053L12.2939 25.9043H7.76367C7.19564 25.9043 6.64795 25.6988 6.21191 25.3271L6.03223 25.1582C5.57253 24.6801 5.31348 24.0314 5.31348 23.3545V9.29395L5.26074 9.34863C4.93379 9.03978 4.66201 8.67344 4.45996 8.26562L4.375 8.08105C4.16014 7.58404 4.04907 7.04507 4.0498 6.5V3.90039C4.0498 2.94259 4.39306 2.02158 5.00781 1.31543L5.13477 1.17676C5.82879 0.455122 6.76947 0.0498055 7.75 0.0498047ZM20.2158 9.37012C19.5381 10.0024 18.6597 10.3509 17.75 10.3496H15.25C14.3034 10.3496 13.438 9.97948 12.7842 9.37012L12.75 9.33887L12.7158 9.37012C12.0381 10.0024 11.1597 10.3509 10.25 10.3496H7.71289V23.4043H10.2998V16.9004C10.2998 16.3081 10.498 15.7369 10.8555 15.2832L11.0186 15.0957C11.4781 14.6179 12.101 14.3496 12.75 14.3496H15.25C15.8179 14.3496 16.3658 14.5553 16.8018 14.9268L16.9814 15.0957C17.4411 15.5738 17.7002 16.2235 17.7002 16.9004V23.4043H25.3164V10.3496H22.75C21.8034 10.3496 20.938 9.97948 20.2842 9.37012L20.25 9.33887L20.2158 9.37012ZM12.7002 23.4043H15.25V23.3555H15.2998V16.8496H12.7002V23.4043ZM21.5 14.3496H22.75C23.0676 14.3496 23.3724 14.4816 23.5977 14.7158C23.8228 14.95 23.9501 15.2677 23.9502 15.5996V19.5C23.9502 19.8321 23.8229 20.1505 23.5977 20.3848C23.3725 20.6189 23.0675 20.75 22.75 20.75H21.5C21.1825 20.75 20.8775 20.6189 20.6523 20.3848C20.4271 20.1505 20.2998 19.8321 20.2998 19.5V15.5996C20.2999 15.2677 20.4272 14.95 20.6523 14.7158C20.8776 14.4816 21.1824 14.3496 21.5 14.3496ZM7.75 2.5498C7.44783 2.54981 7.15702 2.65948 6.92578 2.85645L6.83008 2.94629C6.58657 3.19959 6.4502 3.54301 6.4502 3.90039V6.5C6.4502 6.81272 6.55487 7.11423 6.74414 7.35449L6.83008 7.4541C7.0737 7.70741 7.40462 7.84961 7.75 7.84961H10.25C10.5954 7.84961 10.9263 7.70741 11.1699 7.4541C11.4135 7.20079 11.5498 6.85742 11.5498 6.5V2.5498H7.75ZM13.9502 6.5C13.9502 6.85742 14.0865 7.20079 14.3301 7.4541C14.5737 7.70741 14.9046 7.84961 15.25 7.84961H17.75C18.0521 7.84961 18.343 7.74081 18.5742 7.54395L18.6699 7.4541C18.9135 7.20079 19.0498 6.85742 19.0498 6.5V2.5498H13.9502V6.5ZM21.4502 6.5C21.4502 6.85742 21.5865 7.20079 21.8301 7.4541C22.0737 7.70741 22.4046 7.84961 22.75 7.84961H25.25C25.5954 7.84961 25.9263 7.70741 26.1699 7.4541C26.4135 7.20079 26.5498 6.85742 26.5498 6.5V3.90039C26.5498 3.54301 26.4134 3.19959 26.1699 2.94629C25.9263 2.69291 25.5954 2.5498 25.25 2.5498H21.4502V6.5Z" stroke="white" stroke-width="0.1"/>
</g>
<defs>
<filter id="filter0_d_2223_1670" x="0" y="0" width="33" height="34" filterUnits="userSpaceOnUse" color-interpolation-filters="sRGB">
<feFlood flood-opacity="0" result="BackgroundImageFix"/>
<feColorMatrix in="SourceAlpha" type="matrix" values="0 0 0 0 0 0 0 0 0 0 0 0 0 0 0 0 0 0 127 0" result="hardAlpha"/>
<feOffset dy="4"/>
<feGaussianBlur stdDeviation="2"/>
<feComposite in2="hardAlpha" operator="out"/>
<feColorMatrix type="matrix" values="0 0 0 0 0 0 0 0 0 0 0 0 0 0 0 0 0 0 0.25 0"/>
<feBlend mode="normal" in2="BackgroundImageFix" result="effect1_dropShadow_2223_1670"/>
<feBlend mode="normal" in="SourceGraphic" in2="effect1_dropShadow_2223_1670" result="shape"/>
</filter>
</defs>
</svg>
